<svg xmlns="http://www.w3.org/2000/svg" viewBox="0 0 424 520" width="424" height="520" role="img">
  <rect width="424" height="520" fill="#FFFFFF"/>
  <rect width="424" height="520" fill="#005EB8" opacity="0.05"/>
  <circle cx="336" cy="112" r="44" fill="#00B2A9" opacity="0.28"/>
  <rect x="40" y="104" width="168" height="8" rx="4" fill="#54585A" opacity="0.22"/>
  <rect x="40" y="126" width="134" height="8" rx="4" fill="#54585A" opacity="0.22"/>
  <rect x="40" y="148" width="100" height="8" rx="4" fill="#54585A" opacity="0.22"/>
  <rect x="44" y="272" width="46" height="108" rx="8" fill="#54585A" opacity="0.3"/>
  <rect x="102" y="202" width="46" height="178" rx="8" fill="#54585A" opacity="0.3"/>
  <rect x="160" y="298" width="46" height="82" rx="8" fill="#54585A" opacity="0.3"/>
  <rect x="218" y="172" width="46" height="208" rx="8" fill="#00B2A9" opacity="0.75"/>
  <rect x="276" y="244" width="46" height="136" rx="8" fill="#54585A" opacity="0.3"/>
  <rect x="334" y="284" width="46" height="96" rx="8" fill="#54585A" opacity="0.3"/>
  <rect y="380" width="424" height="120" fill="#54585A" opacity="0.14"/>
  <path d="M340 400 L352 428 L380 440 L352 452 L340 480 L328 452 L300 440 L328 428 Z" fill="#00B2A9"/>
  <rect y="500" width="424" height="20" fill="#00B2A9"/>
</svg>
